<?xml version="1.0" encoding="utf-8"?>
<!-- Generator: Adobe Illustrator 22.0.0, SVG Export Plug-In . SVG Version: 6.00 Build 0)  -->
<svg version="1.1" id="图层_1" xmlns="http://www.w3.org/2000/svg" xmlns:xlink="http://www.w3.org/1999/xlink" x="0px" y="0px"
	 viewBox="0 0 200 200" style="enable-background:new 0 0 200 200;" xml:space="preserve">
<style type="text/css">
	.st0{fill:#FCC81D;}
	.st1{fill:#FF9C32;}
	.st2{fill:#E5182E;}
</style>
<path class="st0" d="M17.1,71.4h165.7c4.7,0,8.6,3.8,8.6,8.6v40c0,4.7-3.8,8.6-8.6,8.6H17.1c-4.7,0-8.6-3.8-8.6-8.6V80
	C8.6,75.3,12.4,71.4,17.1,71.4z"/>
<path class="st1" d="M168.6,130H17.1c-5.5,0-10-4.5-10-10V80c0-5.5,4.5-10,10-10h165.7c5.5,0,10,4.5,10,10v40c0,5.5-4.5,10-10,10
	H168.6z M17.1,72.9c-3.9,0-7.1,3.2-7.1,7.1v40c0,3.9,3.2,7.1,7.1,7.1h165.7c3.9,0,7.1-3.2,7.1-7.1V80c0-3.9-3.2-7.1-7.1-7.1
	L17.1,72.9z"/>
<g>
	<path class="st2" d="M50,96h11.5v-2.7H50v-5.7c4-0.5,7.6-1.1,10.6-1.9l0.9-0.2l-1.3-2.4l-0.6,0.2c-6.2,1.6-14.5,2.5-24.7,2.5
		l-1.1,0l1,2.6l0.5,0c4,0,8-0.1,12-0.5v5.4H35V96h12.4v5.4H32.1v2.6h15.3v7.4c0,1-0.4,1.2-1.1,1.2c-1,0-2.8,0-5.1-0.1l-0.9,0
		l0.6,2.6h5.9c2.1,0,3.3-1.2,3.3-3.5V104h14.1v-2.6H50V96z"/>
	<path class="st2" d="M127.7,84.4h-21.9v10.5h21.9V84.4z M108.4,88.4v-1.5h16.6v1.5H108.4z M108.4,92.4v-1.5h16.6v1.5H108.4z"/>
	<path class="st2" d="M145.8,83.8l-2.4-1.2l-0.3,0.8c-1.7,5.2-4.6,10.2-8.3,14.2l-0.3,0.3l0.9,2.8l0.9-0.9c1.1-1.1,2.2-2.4,3.1-3.6
		v19.2h2.7V92.2c1.4-2.4,2.6-5,3.6-7.8L145.8,83.8z"/>
	<polygon class="st2" points="156.7,111.6 156.7,105.8 165.1,105.8 165.1,103.1 156.7,103.1 156.7,97.8 166.5,97.8 166.5,95.1 
		156.7,95.1 156.7,90.2 164.6,90.2 164.6,87.6 156.7,87.6 156.7,82.8 154,82.8 154,87.6 146.2,87.6 146.2,90.2 154,90.2 154,95.1 
		144.3,95.1 144.3,97.8 154,97.8 154,103.1 145.7,103.1 145.7,105.8 154,105.8 154,111.6 143.7,111.6 143.7,114.2 167.1,114.2 
		167.1,111.6 	"/>
	<path class="st2" d="M96,89.1v-2.7H75.5c0.4-0.8,0.7-1.6,1-2.4l0.3-0.8l-2.7-0.6L74,83.2c-1.6,4.3-4.1,8-7.2,11.1l-0.5,0.5l1.8,2
		l0.6-0.5c2.1-2,4-4.5,5.6-7.2H96z"/>
	<path class="st2" d="M96.1,106.8c-0.3,1.8-0.7,3.3-1,4.4c-0.4,1.2-0.7,1.4-0.8,1.4c-0.5,0-1.3-0.2-1.9-1.7
		c-0.4-0.9-0.8-3.2-0.8-9.5v-4.3H69.3v2.6H89v1.6c0,5.5,0.4,9.1,1.2,10.9c1.1,2.5,2.9,3.1,4.2,3.1c0.9,0,1.7-0.6,2.5-1.8
		c0.6-1.1,1.2-3.1,1.7-6.1l0.1-0.6l-2.4-1.1L96.1,106.8z"/>
	<path class="st2" d="M126.6,109.8c1.8-2,3-4.4,3.7-7.2l0-2h-12.7v2.6h1.3c0.8,2.4,2.1,4.6,3.9,6.6c-1.4,1.2-3.1,2.3-5.1,3.1
		l-0.8,0.4l1.5,2.2l0.6-0.3c2.2-1,4.2-2.2,5.8-3.6c1.6,1.3,3.6,2.5,5.9,3.6l0.6,0.3l1.5-2.3l-0.8-0.3
		C130,112.1,128.2,111.1,126.6,109.8z M121.6,103.3h5.8c-0.6,1.7-1.6,3.4-2.8,4.8C123.2,106.7,122.2,105.1,121.6,103.3z"/>
	<rect x="73" y="91.7" class="st2" width="21.1" height="2.6"/>
	<path class="st2" d="M119,109l-0.9,0.1c-0.6,0.1-1.1,0.1-1.5,0.2V99h15.7v-2.5H101V99h3.7v11.3c-0.9,0-1.8,0.1-2.8,0.1l-0.9,0
		l0.4,2.6l0.7,0c4.6-0.2,8.6-0.5,11.9-0.9v3.3h2.7v-3.6l2.3-0.3V109z M107.3,101v-2h6.7v2H107.3z M107.3,105.4v-1.9h6.7v1.9H107.3z
		 M107.3,110.2v-2.3h6.7v1.7C112.1,109.9,109.8,110,107.3,110.2z"/>
</g>
</svg>
